# Aspose.3D Wavefront OBJ Exporter
# Copyright 2004-2023 Aspose Pty Ltd.
# File created: 10/13/2023 07:05:25

mtllib material.lib

#
# object 立方体_Node
#

v -0.25029167532920836 1.49915391206741336 -1.63645732402801512
v 0.25029167532920836 1.49915391206741336 -1.63645732402801512
v 0.25029191402595076 1.49915393361840896 1.84842091618511968
v -0.25029004920765096 1.499153868965422 1.84842174704473904
v -0.25029167532920836 1.13758820295333862 -1.63645732402801512
v 0.25029167532920836 1.13758820295333862 -1.63645732402801512
v 0.25029167532920836 1.13758820295333862 1.8484225779043584
v -0.2502915410622908 1.13758824605532994 1.84842340876397776
v -0.25029167532920836 2.35953413918230128 0.45510859269010952
v 0.25029167532920836 2.35953413918230128 0.45510859269010952
v 0.25029167532920836 2.14253078484034632 0.72107278056904528
v -0.25029167532920836 2.14253078484034632 0.72107278056904528
v -0.25029167532920836 -1.69154202669358256 -2.34033189029078416
v 0.25029167532920836 -1.69154202669358256 -2.34033189029078416
v 0.25029167532920836 -1.90854538103553744 -2.07436770241184831
v -0.25029167532920836 -1.90854538103553744 -2.07436770241184831
v -0.2502914217139196 1.35081565044862372 1.56361750572519752
v 0.25029194386304356 1.35081565044862372 1.56361750572519752
v 0.25029194386304356 1.18423690627063392 1.85873686921868848
v -0.2502914217139196 1.18423690627063392 1.85873686921868848
v -0.2502914217139196 0.73601875986915392 1.2701292235218986
v 0.25029194386304356 0.73601875986915392 1.2701292235218986
v 0.25029194386304356 0.5694399941401684 1.565248690872842
v -0.2502914217139196 0.5694399941401684 1.565248690872842
v -0.2502914217139196 1.35081565044862372 1.56361750572519752
v 0.25029194386304356 1.35081565044862372 1.56361750572519752
v 0.25029194386304356 1.18423690627063392 1.85873686921868848
v -0.2502914217139196 1.18423690627063392 1.85873686921868848
v -0.2502914217139196 0.73601875986915392 1.2701292235218986
v 0.25029194386304356 0.73601875986915392 1.2701292235218986
v 0.25029194386304356 0.5694399941401684 1.565248690872842
v -0.2502914217139196 0.5694399941401684 1.565248690872842
v -0.25029167532920836 1.47783958944698664 -1.646831229520032
v 0.25029167532920836 1.47783958944698664 -1.646831229520032
v 0.25029167532920836 1.30816381633644596 -1.35320814034349724
v -0.25029167532920836 1.30816381633644596 -1.35320814034349724
v -0.25029167532920836 0.9430154697047328 -1.90821426517290144
v 0.25029167532920836 0.9430154697047328 -1.90821426517290144
v 0.25029167532920836 0.77333969659419216 -1.61459117599636672
v -0.25029167532920836 0.77333969659419216 -1.61459117599636672
v -0.25029167532920836 -1.94026637774368288 -0.39435610259178944
v 0.25029167532920836 -1.94026637774368288 -0.39435610259178944
v 0.25029167532920836 -2.16911140077002074 -0.13692307742665478
v -0.25029167532920836 -2.16911140077002074 -0.13692307742665478
v -0.25029167532920836 -2.48980125022183072 -0.80750764325055968
v 0.25029167532920836 -2.48980125022183072 -0.80750764325055968
v 0.25029167532920836 -2.71864627324816864 -0.5500746700141512
v -0.25029167532920836 -2.71864627324816864 -0.5500746700141512
v -0.25029167532920836 -0.28826342690643968 0.97103404096374752
v 0.25029194386304356 -0.28826342690643968 0.97103430060737856
v 0.25029194386304356 -0.5281122159061056 1.21985120766263576
v -0.2502914217139196 -0.5281122159061056 1.21985120766263576
v -0.25029167532920836 -0.82284225321615168 0.53521587095883304
v 0.25029194386304356 -0.82284225321615168 0.53521568920829136
v 0.25029194386304356 -1.06269104221581756 0.78403324537262624
v -0.2502914217139196 -1.06269104221581756 0.78403324537262624
v -0.2589038537939814 0.5389813685534932 -0.83655615726148368
v 0.24167949686443536 0.5389813685534932 -0.83655615726148368
v 0.24167949686443536 0.5389813685534932 -0.50404551446195
v -0.2589038537939814 0.5389813685534932 -0.50404551446195
v -0.2589038537939814 -2.72490054459512976 -0.83655615726148368
v 0.24167949686443536 -2.72490054459512976 -0.83655615726148368
v 0.24167949686443536 -2.72490054459512976 -0.50404551446195
v -0.2589038537939814 -2.72490054459512976 -0.50404551446195
v -0.25029167532920836 0.45290772635638632 -0.71095947062076448
v 0.25029167532920836 0.45290772635638632 -0.71095947062076448
v 0.25029167532920836 -2.49100569226698096 2.26309942103803508
v -0.25029167532920836 -2.49100569226698096 2.26309942103803508
v -0.25029167532920836 0.18553469533839008 -0.93479533693151488
v 0.25029167532920836 0.18553469533839008 -0.93479533693151488
v 0.25029167532920836 -2.75837872328497728 2.0392635547272846
v -0.25029167532920836 -2.75837872328497728 2.0392635547272846
# 72 vertices

vn -8.940723716932553E-08 1 1.4901289091540093E-08
vn -1.7881447433865105E-07 1 -5.960480820021985E-08
vn -8.940723716932553E-08 1 1.4901289091540093E-08
vn -8.940723716932553E-08 1 1.4901289091540093E-08
vn -8.940723716932553E-08 1 1.4901289091540093E-08
vn 0 1 8.940738638330004E-08
vn 0 0 -1
vn 0 0 -1
vn 0 0 -1
vn 0 0 -1
vn 0 0 -1
vn 0 0 -1
vn 1 -2.3841855067985307E-07 -2.3841853646899835E-07
vn 1 -4.7683710135970614E-07 -4.768370729379967E-07
vn 1 -2.3841855067985307E-07 -2.3841853646899835E-07
vn 1 -2.3841855067985307E-07 -2.3841853646899835E-07
vn 1 -2.3841855067985307E-07 -2.3841853646899835E-07
vn 1 0 0
vn 2.9802379231114173E-07 4.7683681714261184E-07 1
vn 3.576289486773021E-07 4.7683656134722696E-07 1
vn 2.9802379231114173E-07 4.7683681714261184E-07 1
vn 2.9802379231114173E-07 4.7683681714261184E-07 1
vn 2.9802379231114173E-07 4.7683681714261184E-07 1
vn 2.3841863594498136E-07 4.768370445162873E-07 1
vn -1 1.490116005697928E-06 1.7583361113793217E-06
vn -1 0 3.248452003390412E-06
vn -1 1.490116005697928E-06 1.7583361113793217E-06
vn -1 1.490116005697928E-06 1.7583361113793217E-06
vn -1 1.490116005697928E-06 1.7583361113793217E-06
vn -1 2.980232011395856E-06 2.682203046333598E-07
vn -5.960464477539063E-08 -1 4.4703469370688254E-08
vn 0 -1 0
vn -5.960464477539063E-08 -1 4.4703469370688254E-08
vn -5.960464477539063E-08 -1 4.4703469370688254E-08
vn -5.960464477539063E-08 -1 4.4703469370688254E-08
vn -1.1920928955078125E-07 -1 8.940693874137651E-08
vn 0 0.06055675446987152 0.99816477298736576
vn 0 -0.00558344088494777 0.9999844431877136
vn 0 0.12614591419696808 0.99201172590255744
vn 0 0.06055675446987152 0.99816477298736576
vn 0 0.12614591419696808 0.99201172590255744
vn 0 0.12614591419696808 0.99201172590255744
vn 0 0.07141169160604477 -0.99744695425033568
vn 0 0.07141169160604477 -0.99744695425033568
vn 0 0.00558337569236755 -0.9999844431877136
vn 0 0.07141169160604477 -0.99744695425033568
vn 0 0.00558337569236755 -0.9999844431877136
vn 0 -0.06055675446987152 -0.99816477298736576
vn 1 0 0
vn 1 0 0
vn 1 0 0
vn 1 0 0
vn 1 0 0
vn 1 0 0
vn 0 -0.00558344088494777 0.9999844431877136
vn 0 0.06055675446987152 0.99816477298736576
vn 0 -0.07141169160604477 0.99744695425033568
vn 0 -0.00558344088494777 0.9999844431877136
vn 0 -0.07141169160604477 0.99744695425033568
vn 0 -0.07141169160604477 0.99744695425033568
vn -1 0 0
vn -1 0 0
vn -1 0 0
vn -1 0 0
vn -1 0 0
vn -1 0 0
vn 0 -0.06055675446987152 -0.99816477298736576
vn 0 0.00558337569236755 -0.9999844431877136
vn 0 -0.12614591419696808 -0.99201172590255744
vn 0 -0.06055675446987152 -0.99816477298736576
vn 0 -0.12614591419696808 -0.99201172590255744
vn 0 -0.12614572048187256 -0.99201172590255744
vn 0 0.10465489327907562 0.9945086240768432
vn 0 0.02744567021727562 0.99962323904037472
vn 0 0.18078491091728212 0.98352271318435664
vn 0 0.10465489327907562 0.9945086240768432
vn 0 0.18078491091728212 0.98352271318435664
vn 0 0.18078491091728212 0.98352271318435664
vn 0 0.0494682788848877 -0.99877578020095824
vn 0 0.0494682788848877 -0.99877578020095824
vn 0 -0.02744566835463047 -0.99962329864501952
vn 0 0.0494682788848877 -0.99877578020095824
vn 0 -0.02744566835463047 -0.99962329864501952
vn 0 -0.10465491563081742 -0.99450856447219856
vn 1 0 0
vn 1 0 0
vn 1 0 0
vn 1 0 0
vn 1 0 0
vn 1 0 0
vn 0 0.02744567021727562 0.99962323904037472
vn 0 0.10465489327907562 0.99450856447219856
vn 0 -0.0494682565331459 0.99877572059631344
vn 0 0.02744566835463047 0.99962323904037472
vn 0 -0.0494682565331459 0.99877572059631344
vn 0 -0.0494682602584362 0.99877578020095824
vn -1 2.0379269827230928E-08 0
vn -1 8.151718589033408E-08 0
vn -1 2.0379269827230928E-08 0
vn -1 2.0379269827230928E-08 0
vn -1 2.0379269827230928E-08 0
vn -1 -4.075864623587222E-08 0
vn 0 -0.10465491563081742 -0.99450856447219856
vn 0 -0.02744566276669502 -0.99962329864501952
vn 0 -0.18078495562076568 -0.98352271318435664
vn 0 -0.10465491563081742 -0.99450856447219856
vn 0 -0.18078495562076568 -0.98352271318435664
vn 0 -0.18078495562076568 -0.98352271318435664
vn 0 0.10465489327907562 0.9945086240768432
vn 0 0.02744567021727562 0.99962323904037472
vn 0 0.18078491091728212 0.98352271318435664
vn 0 0.10465489327907562 0.9945086240768432
vn 0 0.18078491091728212 0.98352271318435664
vn 0 0.18078491091728212 0.98352271318435664
vn 0 0.0494682788848877 -0.99877578020095824
vn 0 0.0494682788848877 -0.99877578020095824
vn 0 -0.02744566835463047 -0.99962329864501952
vn 0 0.0494682788848877 -0.99877578020095824
vn 0 -0.02744566835463047 -0.99962329864501952
vn 0 -0.10465491563081742 -0.99450856447219856
vn 1 0 0
vn 1 0 0
vn 1 0 0
vn 1 0 0
vn 1 0 0
vn 1 0 0
vn 0 0.02744567021727562 0.99962323904037472
vn 0 0.10465489327907562 0.99450856447219856
vn 0 -0.0494682565331459 0.99877572059631344
vn 0 0.02744566835463047 0.99962323904037472
vn 0 -0.0494682565331459 0.99877572059631344
vn 0 -0.0494682602584362 0.99877578020095824
vn -1 2.0379269827230928E-08 0
vn -1 8.151718589033408E-08 0
vn -1 2.0379269827230928E-08 0
vn -1 2.0379269827230928E-08 0
vn -1 2.0379269827230928E-08 0
vn -1 -4.075864623587222E-08 0
vn 0 -0.10465491563081742 -0.99450856447219856
vn 0 -0.02744566276669502 -0.99962329864501952
vn 0 -0.18078495562076568 -0.98352271318435664
vn 0 -0.10465491563081742 -0.99450856447219856
vn 0 -0.18078495562076568 -0.98352271318435664
vn 0 -0.18078495562076568 -0.98352271318435664
vn 0 0.10151849687099456 0.99483358860015872
vn 0 0.02529109455645084 0.9996801018714904
vn 0 0.17671790719032288 0.98426151275634768
vn 0 0.10151849687099456 0.99483358860015872
vn 0 0.17671790719032288 0.98426151275634768
vn 0 0.17671790719032288 0.98426151275634768
vn 0 0.050641730427742 -0.99871695041656496
vn 0 0.050641730427742 -0.99871695041656496
vn 0 -0.0252910777926445 -0.9996801018714904
vn 0 0.050641730427742 -0.99871695041656496
vn 0 -0.0252910777926445 -0.9996801018714904
vn 0 -0.10151849687099456 -0.99483358860015872
vn 1 0 0
vn 1 0 0
vn 1 0 0
vn 1 0 0
vn 1 0 0
vn 1 0 0
vn 0 0.02529109455645084 0.9996801018714904
vn 0 0.10151848942041398 0.99483358860015872
vn 0 -0.050641730427742 0.99871695041656496
vn 0 0.02529109455645084 0.9996801018714904
vn 0 -0.050641730427742 0.99871695041656496
vn 0 -0.050641730427742 0.99871695041656496
vn -1 0 0
vn -1 0 0
vn -1 0 0
vn -1 0 0
vn -1 0 0
vn -1 0 0
vn 0 -0.10151849687099456 -0.99483358860015872
vn 0 -0.02529107592999935 -0.9996801018714904
vn 0 -0.17671792209148406 -0.98426163196563728
vn 0 -0.10151850432157516 -0.99483358860015872
vn 0 -0.17671792209148406 -0.98426163196563728
vn 0 -0.17671795189380646 -0.98426157236099248
vn 0 0.05157777667045593 0.998668909072876
vn 0 -0.01325796172022819 0.99991214275360112
vn 0 0.11592695862054824 0.99325776100158688
vn 0 0.05157777667045593 0.998668909072876
vn 0 0.11592695862054824 0.99325776100158688
vn 0 0.11592712253332138 0.99325770139694208
vn 0 0.07776722311973572 -0.996971607208252
vn 0 0.0777672678232193 -0.9969715476036072
vn 0 0.01325796172022819 -0.99991214275360112
vn 0 0.07776722311973572 -0.996971607208252
vn 0 0.01325796172022819 -0.99991214275360112
vn 0 -0.05157776921987534 -0.998668909072876
vn 1 0 0
vn 1 0 0
vn 1 0 0
vn 1 0 0
vn 1 0 0
vn 1 0 0
vn 0 -0.01325796172022819 0.99991214275360112
vn 0 0.05157777667045593 0.998668909072876
vn 0 -0.07776723057031631 0.996971607208252
vn 0 -0.01325796172022819 0.99991214275360112
vn 0 -0.07776723057031631 0.996971607208252
vn 0 -0.0777672752737999 0.9969715476036072
vn -1 0 0
vn -1 0 0
vn -1 0 0
vn -1 0 0
vn -1 0 0
vn -1 0 0
vn 0 -0.05157776921987534 -0.998668909072876
vn 0 0.01325796172022819 -0.99991214275360112
vn 0 -0.11592693626880646 -0.99325776100158688
vn 0 -0.05157776921987534 -0.998668909072876
vn 0 -0.11592693626880646 -0.99325776100158688
vn 0 -0.115927092730999 -0.99325770139694208
vn -1.4950307658523343E-08 0.04342502355575561 0.99905669689178464
vn 0 -0.0206019077450037 0.99978780746459968
vn -2.2334079474717328E-08 0.10701408237218856 0.99425750970840448
vn -1.4950307658523343E-08 0.04342502355575561 0.99905669689178464
vn -2.2334079474717328E-08 0.10701408237218856 0.99425750970840448
vn -4.4668158949434655E-08 0.10701408982276916 0.99425756931304928
vn 2.0085250795887077E-08 0.08428404480218887 -0.99644184112548832
vn 8.034100318354831E-08 0.08428408205509186 -0.99644184112548832
vn -8.98054075548771E-09 0.02060184068977832 -0.99978774785995488
vn 2.0085250795887077E-08 0.08428404480218887 -0.99644184112548832
vn -8.98054075548771E-09 0.02060184068977832 -0.99978774785995488
vn -3.587044616892854E-08 -0.04342515394091606 -0.99905669689178464
vn 1 0 0
vn 1 0 0
vn 1 0 0
vn 1 0 0
vn 1 0 0
vn 1 0 0
vn 0 -0.0206019077450037 0.99978780746459968
vn -1.4950307658523343E-08 0.04342502355575561 0.99905669689178464
vn 0 -0.0842839702963829 0.99644178152084352
vn 0 -0.0206019077450037 0.99978780746459968
vn 0 -0.0842839702963829 0.99644178152084352
vn 0 -0.0842839702963829 0.99644178152084352
vn -1 -3.161643462590291E-07 3.973344973928761E-06
vn -1 -2.3712325969427184E-07 3.973344064434059E-06
vn -1 -3.161643462590291E-07 3.973344973928761E-06
vn -1 -3.161643462590291E-07 3.973344973928761E-06
vn -1 -3.161643462590291E-07 3.973344973928761E-06
vn -1 -3.952054328237864E-07 3.973346338170813E-06
vn -3.587044616892854E-08 -0.04342515394091606 -0.99905669689178464
vn -8.98054075548771E-09 0.02060184068977832 -0.99978774785995488
vn -3.3501169838245914E-08 -0.10701431334018708 -0.99425756931304928
vn -3.587044616892854E-08 -0.04342515394091606 -0.99905669689178464
vn -3.3501169838245914E-08 -0.10701431334018708 -0.99425756931304928
vn 0 -0.10701417922973632 -0.99425750970840448
vn 0 1 0
vn 0 1 0
vn 0 1 0
vn 0 1 0
vn 0 1 0
vn 0 1 0
vn 0 0 -1
vn 0 0 -1
vn 0 0 -1
vn 0 0 -1
vn 0 0 -1
vn 0 0 -1
vn 1 0 0
vn 1 0 0
vn 1 0 0
vn 1 0 0
vn 1 0 0
vn 1 0 0
vn 0 0 1
vn 0 0 1
vn 0 0 1
vn 0 0 1
vn 0 0 1
vn 0 0 1
vn -1 0 0
vn -1 0 0
vn -1 0 0
vn -1 0 0
vn -1 0 0
vn -1 0 0
vn 0 -1 0
vn 0 -1 0
vn 0 -1 0
vn 0 -1 0
vn 0 -1 0
vn 0 -1 0
vn 0 0.04081730172038078 0.9991666674613952
vn 0 -0.02303369343280792 0.9997346997261048
vn 0 0.10424412786960602 0.99455177783966064
vn 0 0.04081730172038078 0.9991666674613952
vn 0 0.10424412786960602 0.99455177783966064
vn 0 0.10424413532018662 0.99455177783966064
vn 0 0.0865325853228569 -0.99624902009963984
vn 0 0.0865325853228569 -0.99624902009963984
vn 0 0.02303368784487247 -0.9997346997261048
vn 0 0.0865325853228569 -0.99624902009963984
vn 0 0.02303368784487247 -0.9997346997261048
vn 0 -0.04081730172038078 -0.9991666674613952
vn 1 0 0
vn 1 0 0
vn 1 0 0
vn 1 0 0
vn 1 0 0
vn 1 0 0
vn 0 -0.02303369343280792 0.9997346997261048
vn 0 0.04081730172038078 0.9991666674613952
vn 0 -0.0865325853228569 0.99624902009963984
vn 0 -0.02303369343280792 0.9997346997261048
vn 0 -0.0865325853228569 0.99624902009963984
vn 0 -0.0865325853228569 0.99624902009963984
vn -1 0 0
vn -1 0 0
vn -1 0 0
vn -1 0 0
vn -1 0 0
vn -1 0 0
vn 0 -0.04081730172038078 -0.9991666674613952
vn 0 0.02303368784487247 -0.9997346997261048
vn 0 -0.10424412786960602 -0.99455177783966064
vn 0 -0.04081730172038078 -0.9991666674613952
vn 0 -0.10424412786960602 -0.99455177783966064
vn 0 -0.10424412041902542 -0.99455177783966064
# 324 vertex normals

vt 0.25 0.75 0
vt 0.5 0.75 0
vt 0.5 1 0
vt 0.25 0.75 0
vt 0.5 1 0
vt 0.25 1 0
vt 0.5 0.75 0
vt 0.25 0.75 0
vt 0.25 0.5 0
vt 0.5 0.75 0
vt 0.25 0.5 0
vt 0.5 0.5 0
vt 0.75 0.25 0
vt 0.5 0.25 0
vt 0.5 0 0
vt 0.75 0.25 0
vt 0.5 0 0
vt 0.75 0 0
vt 0.5 0.25 0
vt 0.25 0.25 0
vt 0.25 0 0
vt 0.5 0.25 0
vt 0.25 0 0
vt 0.5 0 0
vt 0.25 0.25 0
vt 0 0.25 0
vt 0 0 0
vt 0.25 0.25 0
vt 0 0 0
vt 0.25 0 0
vt 0.5 0.5 0
vt 0.25 0.5 0
vt 0.25 0.25 0
vt 0.5 0.5 0
vt 0.25 0.25 0
vt 0.5 0.25 0
vt 0.25 0.75 0
vt 0.5 0.75 0
vt 0.5 1 0
vt 0.25 0.75 0
vt 0.5 1 0
vt 0.25 1 0
vt 0.5 0.75 0
vt 0.25 0.75 0
vt 0.25 0.5 0
vt 0.5 0.75 0
vt 0.25 0.5 0
vt 0.5 0.5 0
vt 0.75 0.25 0
vt 0.5 0.25 0
vt 0.75 0 0
vt 0.5 0.25 0
vt 0.5 0 0
vt 0.75 0 0
vt 0.5 0.25 0
vt 0.25 0.25 0
vt 0.25 0 0
vt 0.5 0.25 0
vt 0.25 0 0
vt 0.5 0 0
vt 0.25 0.25 0
vt 0 0.25 0
vt 0 0 0
vt 0.25 0.25 0
vt 0 0 0
vt 0.25 0 0
vt 0.5 0.5 0
vt 0.25 0.5 0
vt 0.25 0.25 0
vt 0.5 0.5 0
vt 0.25 0.25 0
vt 0.5 0.25 0
vt 0.25 0.75 0
vt 0.5 0.75 0
vt 0.5 1 0
vt 0.25 0.75 0
vt 0.5 1 0
vt 0.25 1 0
vt 0.5 0.75 0
vt 0.25 0.75 0
vt 0.25 0.5 0
vt 0.5 0.75 0
vt 0.25 0.5 0
vt 0.5 0.5 0
vt 0.75 0.25 0
vt 0.5 0.25 0
vt 0.75 0 0
vt 0.5 0.25 0
vt 0.5 0 0
vt 0.75 0 0
vt 0.5 0.25 0
vt 0.25 0.25 0
vt 0.25 0 0
vt 0.5 0.25 0
vt 0.25 0 0
vt 0.5 0 0
vt 0.25 0.25 0
vt 0 0.25 0
vt 0 0 0
vt 0.25 0.25 0
vt 0 0 0
vt 0.25 0 0
vt 0.5 0.5 0
vt 0.25 0.5 0
vt 0.25 0.25 0
vt 0.5 0.5 0
vt 0.25 0.25 0
vt 0.5 0.25 0
vt 0.25 0.75 0
vt 0.5 0.75 0
vt 0.5 1 0
vt 0.25 0.75 0
vt 0.5 1 0
vt 0.25 1 0
vt 0.5 0.75 0
vt 0.25 0.75 0
vt 0.25 0.5 0
vt 0.5 0.75 0
vt 0.25 0.5 0
vt 0.5 0.5 0
vt 0.75 0.25 0
vt 0.5 0.25 0
vt 0.75 0 0
vt 0.5 0.25 0
vt 0.5 0 0
vt 0.75 0 0
vt 0.5 0.25 0
vt 0.25 0.25 0
vt 0.25 0 0
vt 0.5 0.25 0
vt 0.25 0 0
vt 0.5 0 0
vt 0.25 0.25 0
vt 0 0.25 0
vt 0 0 0
vt 0.25 0.25 0
vt 0 0 0
vt 0.25 0 0
vt 0.5 0.5 0
vt 0.25 0.5 0
vt 0.25 0.25 0
vt 0.5 0.5 0
vt 0.25 0.25 0
vt 0.5 0.25 0
vt 0.25 0.75 0
vt 0.5 0.75 0
vt 0.5 1 0
vt 0.25 0.75 0
vt 0.5 1 0
vt 0.25 1 0
vt 0.5 0.75 0
vt 0.25 0.75 0
vt 0.25 0.5 0
vt 0.5 0.75 0
vt 0.25 0.5 0
vt 0.5 0.5 0
vt 0.75 0.25 0
vt 0.5 0.25 0
vt 0.75 0 0
vt 0.5 0.25 0
vt 0.5 0 0
vt 0.75 0 0
vt 0.5 0.25 0
vt 0.25 0.25 0
vt 0.25 0 0
vt 0.5 0.25 0
vt 0.25 0 0
vt 0.5 0 0
vt 0.25 0.25 0
vt 0 0.25 0
vt 0 0 0
vt 0.25 0.25 0
vt 0 0 0
vt 0.25 0 0
vt 0.5 0.5 0
vt 0.25 0.5 0
vt 0.25 0.25 0
vt 0.5 0.5 0
vt 0.25 0.25 0
vt 0.5 0.25 0
vt 0.25 0.75 0
vt 0.5 0.75 0
vt 0.5 1 0
vt 0.25 0.75 0
vt 0.5 1 0
vt 0.25 1 0
vt 0.5 0.75 0
vt 0.25 0.75 0
vt 0.25 0.5 0
vt 0.5 0.75 0
vt 0.25 0.5 0
vt 0.5 0.5 0
vt 0.75 0.25 0
vt 0.5 0.25 0
vt 0.75 0 0
vt 0.5 0.25 0
vt 0.5 0 0
vt 0.75 0 0
vt 0.5 0.25 0
vt 0.25 0.25 0
vt 0.25 0 0
vt 0.5 0.25 0
vt 0.25 0 0
vt 0.5 0 0
vt 0.25 0.25 0
vt 0 0.25 0
vt 0 0 0
vt 0.25 0.25 0
vt 0 0 0
vt 0.25 0 0
vt 0.5 0.5 0
vt 0.25 0.5 0
vt 0.25 0.25 0
vt 0.5 0.5 0
vt 0.25 0.25 0
vt 0.5 0.25 0
vt 0.25 0.75 0
vt 0.5 0.75 0
vt 0.5 1 0
vt 0.25 0.75 0
vt 0.5 1 0
vt 0.25 1 0
vt 0.5 0.75 0
vt 0.25 0.75 0
vt 0.25 0.5 0
vt 0.5 0.75 0
vt 0.25 0.5 0
vt 0.5 0.5 0
vt 0.75 0.25 0
vt 0.5 0.25 0
vt 0.75 0 0
vt 0.5 0.25 0
vt 0.5 0 0
vt 0.75 0 0
vt 0.5 0.25 0
vt 0.25 0.25 0
vt 0.25 0 0
vt 0.5 0.25 0
vt 0.25 0 0
vt 0.5 0 0
vt 0.25 0.25 0
vt 0 0.25 0
vt 0 0 0
vt 0.25 0.25 0
vt 0 0 0
vt 0.25 0 0
vt 0.5 0.5 0
vt 0.25 0.5 0
vt 0.25 0.25 0
vt 0.5 0.5 0
vt 0.25 0.25 0
vt 0.5 0.25 0
vt 0.25 0.75 0
vt 0.5 0.75 0
vt 0.5 1 0
vt 0.25 0.75 0
vt 0.5 1 0
vt 0.25 1 0
vt 0.5 0.75 0
vt 0.25 0.75 0
vt 0.25 0.5 0
vt 0.5 0.75 0
vt 0.25 0.5 0
vt 0.5 0.5 0
vt 0.75 0.25 0
vt 0.5 0.25 0
vt 0.5 0 0
vt 0.75 0.25 0
vt 0.5 0 0
vt 0.75 0 0
vt 0.5 0.25 0
vt 0.25 0.25 0
vt 0.25 0 0
vt 0.5 0.25 0
vt 0.25 0 0
vt 0.5 0 0
vt 0.25 0.25 0
vt 0 0.25 0
vt 0 0 0
vt 0.25 0.25 0
vt 0 0 0
vt 0.25 0 0
vt 0.5 0.5 0
vt 0.25 0.5 0
vt 0.25 0.25 0
vt 0.5 0.5 0
vt 0.25 0.25 0
vt 0.5 0.25 0
vt 0.25 0.75 0
vt 0.5 0.75 0
vt 0.5 1 0
vt 0.25 0.75 0
vt 0.5 1 0
vt 0.25 1 0
vt 0.5 0.75 0
vt 0.25 0.75 0
vt 0.25 0.5 0
vt 0.5 0.75 0
vt 0.25 0.5 0
vt 0.5 0.5 0
vt 0.75 0.25 0
vt 0.5 0.25 0
vt 0.75 0 0
vt 0.5 0.25 0
vt 0.5 0 0
vt 0.75 0 0
vt 0.5 0.25 0
vt 0.25 0.25 0
vt 0.25 0 0
vt 0.5 0.25 0
vt 0.25 0 0
vt 0.5 0 0
vt 0.25 0.25 0
vt 0 0.25 0
vt 0 0 0
vt 0.25 0.25 0
vt 0 0 0
vt 0.25 0 0
vt 0.5 0.5 0
vt 0.25 0.5 0
vt 0.25 0.25 0
vt 0.5 0.5 0
vt 0.25 0.25 0
vt 0.5 0.25 0
# 324 texture coords

g 立方体_Node
usemtl Default - Lambert
s 1
f 4/1/1 3/2/2 2/3/3
f 4/4/4 2/5/5 1/6/6
f 1/7/7 2/8/8 6/9/9
f 1/10/10 6/11/11 5/12/12
f 2/13/13 3/14/14 7/15/15
f 2/16/16 7/17/17 6/18/18
f 3/19/19 4/20/20 8/21/21
f 3/22/22 8/23/23 7/24/24
f 4/25/25 1/26/26 5/27/27
f 4/28/28 5/29/29 8/30/30
f 5/31/31 6/32/32 7/33/33
f 5/34/34 7/35/35 8/36/36
f 12/37/37 11/38/38 10/39/39
f 12/40/40 10/41/41 9/42/42
f 9/43/43 10/44/44 14/45/45
f 9/46/46 14/47/47 13/48/48
f 10/49/49 11/50/50 14/51/51
f 11/52/52 15/53/53 14/54/54
f 11/55/55 12/56/56 16/57/57
f 11/58/58 16/59/59 15/60/60
f 12/61/61 9/62/62 13/63/63
f 12/64/64 13/65/65 16/66/66
f 13/67/67 14/68/68 15/69/69
f 13/70/70 15/71/71 16/72/72
f 20/73/73 19/74/74 18/75/75
f 20/76/76 18/77/77 17/78/78
f 17/79/79 18/80/80 22/81/81
f 17/82/82 22/83/83 21/84/84
f 18/85/85 19/86/86 22/87/87
f 19/88/88 23/89/89 22/90/90
f 19/91/91 20/92/92 24/93/93
f 19/94/94 24/95/95 23/96/96
f 20/97/97 17/98/98 21/99/99
f 20/100/100 21/101/101 24/102/102
f 21/103/103 22/104/104 23/105/105
f 21/106/106 23/107/107 24/108/108
f 28/109/109 27/110/110 26/111/111
f 28/112/112 26/113/113 25/114/114
f 25/115/115 26/116/116 30/117/117
f 25/118/118 30/119/119 29/120/120
f 26/121/121 27/122/122 30/123/123
f 27/124/124 31/125/125 30/126/126
f 27/127/127 28/128/128 32/129/129
f 27/130/130 32/131/131 31/132/132
f 28/133/133 25/134/134 29/135/135
f 28/136/136 29/137/137 32/138/138
f 29/139/139 30/140/140 31/141/141
f 29/142/142 31/143/143 32/144/144
f 36/145/145 35/146/146 34/147/147
f 36/148/148 34/149/149 33/150/150
f 33/151/151 34/152/152 38/153/153
f 33/154/154 38/155/155 37/156/156
f 34/157/157 35/158/158 38/159/159
f 35/160/160 39/161/161 38/162/162
f 35/163/163 36/164/164 40/165/165
f 35/166/166 40/167/167 39/168/168
f 36/169/169 33/170/170 37/171/171
f 36/172/172 37/173/173 40/174/174
f 37/175/175 38/176/176 39/177/177
f 37/178/178 39/179/179 40/180/180
f 44/181/181 43/182/182 42/183/183
f 44/184/184 42/185/185 41/186/186
f 41/187/187 42/188/188 46/189/189
f 41/190/190 46/191/191 45/192/192
f 42/193/193 43/194/194 46/195/195
f 43/196/196 47/197/197 46/198/198
f 43/199/199 44/200/200 48/201/201
f 43/202/202 48/203/203 47/204/204
f 44/205/205 41/206/206 45/207/207
f 44/208/208 45/209/209 48/210/210
f 45/211/211 46/212/212 47/213/213
f 45/214/214 47/215/215 48/216/216
f 52/217/217 51/218/218 50/219/219
f 52/220/220 50/221/221 49/222/222
f 49/223/223 50/224/224 54/225/225
f 49/226/226 54/227/227 53/228/228
f 50/229/229 51/230/230 54/231/231
f 51/232/232 55/233/233 54/234/234
f 51/235/235 52/236/236 56/237/237
f 51/238/238 56/239/239 55/240/240
f 52/241/241 49/242/242 53/243/243
f 52/244/244 53/245/245 56/246/246
f 53/247/247 54/248/248 55/249/249
f 53/250/250 55/251/251 56/252/252
f 60/253/253 59/254/254 58/255/255
f 60/256/256 58/257/257 57/258/258
f 57/259/259 58/260/260 62/261/261
f 57/262/262 62/263/263 61/264/264
f 58/265/265 59/266/266 63/267/267
f 58/268/268 63/269/269 62/270/270
f 59/271/271 60/272/272 64/273/273
f 59/274/274 64/275/275 63/276/276
f 60/277/277 57/278/278 61/279/279
f 60/280/280 61/281/281 64/282/282
f 61/283/283 62/284/284 63/285/285
f 61/286/286 63/287/287 64/288/288
f 68/289/289 67/290/290 66/291/291
f 68/292/292 66/293/293 65/294/294
f 65/295/295 66/296/296 70/297/297
f 65/298/298 70/299/299 69/300/300
f 66/301/301 67/302/302 70/303/303
f 67/304/304 71/305/305 70/306/306
f 67/307/307 68/308/308 72/309/309
f 67/310/310 72/311/311 71/312/312
f 68/313/313 65/314/314 69/315/315
f 68/316/316 69/317/317 72/318/318
f 69/319/319 70/320/320 71/321/321
f 69/322/322 71/323/323 72/324/324
#108 polygons

