# Blender v3.2.2 OBJ File: ''
# www.blender.org
mtllib 《源》立体模型.mtl
o 平面
v -1.273100 0.588442 0.787134
v -1.184780 0.757046 0.787135
v -0.795693 0.553229 0.787134
v -0.884014 0.384624 0.787134
v -1.351894 0.061960 0.787134
v -1.263572 0.230564 0.787134
v -0.874486 0.026747 0.787134
v -0.962808 -0.141858 0.787134
v -1.304708 -0.763794 0.787134
v -1.403939 -0.601370 0.787134
v -1.029118 -0.372377 0.787134
v -0.929887 -0.534800 0.787134
v -0.327478 0.715989 0.787145
v -0.514313 0.752329 0.787124
v -0.482049 0.881870 0.787124
v -0.295213 0.881870 0.787145
v -0.669878 -1.044393 0.787145
v -0.856713 -1.008053 0.787123
v 0.812069 0.881870 0.787145
v 0.779806 0.715989 0.787145
v -0.029549 0.469846 0.787134
v 0.094831 0.325771 0.787134
v -0.025312 0.222050 0.787134
v -0.149693 0.366124 0.787134
v 0.182786 0.653156 0.787134
v 0.307167 0.509081 0.787134
v 0.418277 0.325771 0.787134
v 0.418277 0.222050 0.787134
v -0.025312 -0.035561 0.787134
v -0.025312 -0.139222 0.787134
v -0.149693 -0.139222 0.787134
v -0.149693 0.005778 0.787134
v 0.548853 0.325771 0.787134
v 0.548853 0.222050 0.787134
v 0.548853 -0.035561 0.787134
v 0.548853 -0.139222 0.787134
v 0.418277 -0.139222 0.787134
v 0.418277 -0.035561 0.787134
v -0.025312 -0.244926 0.787134
v -0.149693 -0.244926 0.787134
v 0.548853 -0.244926 0.787134
v 0.418277 -0.244926 0.787134
v 0.275889 -0.244926 0.787134
v 0.275889 -0.139222 0.787134
v -0.025312 0.068098 0.787134
v -0.149693 0.150778 0.787134
v 0.548853 0.068100 0.787134
v 0.418277 0.068100 0.787134
v 0.124637 -0.139222 0.787134
v 0.124637 -0.244926 0.787134
v 0.275889 -0.871734 0.787134
v 0.275889 -1.044393 0.787134
v 0.124637 -1.044392 0.787134
v 0.124637 -0.871734 0.787134
v -0.121005 -0.842701 0.787134
v -0.046354 -0.720778 0.787134
v -0.409331 -0.785283 0.787134
v -0.508562 -0.622860 0.787134
v -0.133740 -0.393865 0.787134
v -0.034508 -0.556288 0.787134
v 0.420153 -0.563533 0.787134
v 0.524201 -0.404153 0.787134
v 0.892000 -0.644267 0.787134
v 0.787950 -0.803647 0.787134
v -1.273100 0.588442 0.526353
v -0.884014 0.384624 0.526353
v -0.795693 0.553229 0.526353
v -1.184778 0.757046 0.526353
v -1.351893 0.061960 0.526353
v -0.962808 -0.141858 0.526353
v -0.874486 0.026747 0.526353
v -1.263572 0.230564 0.526353
v -1.304708 -0.763793 0.526353
v -0.929885 -0.534800 0.526353
v -1.029116 -0.372377 0.526353
v -1.403939 -0.601370 0.526353
v -0.327478 0.715989 0.526364
v -0.295213 0.881870 0.526364
v -0.482049 0.881868 0.526342
v -0.514313 0.752329 0.526342
v -0.669876 -1.044393 0.526363
v -0.856712 -1.008053 0.526341
v 0.779806 0.715989 0.526364
v 0.812069 0.881870 0.526364
v -0.029549 0.469846 0.526353
v -0.149693 0.366124 0.526353
v -0.025312 0.222050 0.526353
v 0.094831 0.325772 0.526353
v 0.182786 0.653156 0.526353
v 0.307167 0.509081 0.526353
v 0.418277 0.222050 0.526353
v 0.418278 0.325772 0.526353
v -0.025312 -0.035561 0.526353
v -0.149693 0.005778 0.526353
v -0.149693 -0.139222 0.526353
v -0.025312 -0.139222 0.526353
v 0.548853 0.222050 0.526353
v 0.548853 0.325772 0.526353
v 0.548853 -0.035561 0.526353
v 0.418277 -0.035561 0.526353
v 0.418277 -0.139222 0.526353
v 0.548853 -0.139222 0.526353
v -0.149693 -0.244926 0.526353
v -0.025312 -0.244926 0.526353
v 0.418278 -0.244926 0.526353
v 0.548853 -0.244926 0.526353
v 0.275889 -0.244926 0.526353
v 0.275889 -0.139222 0.526353
v -0.149693 0.150778 0.526353
v -0.025312 0.068098 0.526353
v 0.418277 0.068100 0.526353
v 0.548853 0.068100 0.526353
v 0.124638 -0.244926 0.526353
v 0.124638 -0.139222 0.526353
v 0.275889 -0.871734 0.526352
v 0.124638 -0.871734 0.526352
v 0.124638 -1.044392 0.526352
v 0.275889 -1.044393 0.526352
v -0.046354 -0.720778 0.526353
v -0.121005 -0.842701 0.526352
v -0.409330 -0.785283 0.526352
v -0.034508 -0.556289 0.526353
v -0.133740 -0.393865 0.526353
v -0.508561 -0.622860 0.526353
v 0.420153 -0.563533 0.526353
v 0.787951 -0.803647 0.526352
v 0.892000 -0.644267 0.526353
v 0.524203 -0.404153 0.526353
vt 0.000000 0.000000
vt 1.000000 1.000000
vt 1.000000 0.000000
vt 0.000000 1.000000
vt 1.000000 0.000000
vt 0.000000 0.000000
vt 0.000000 0.000000
vt 1.000000 1.000000
vt 1.000000 0.000000
vt 0.913885 0.000000
vt 1.000000 1.000000
vt 1.000000 0.000000
vt 0.000000 1.000000
vt 0.000000 0.000000
vt 0.913885 0.000000
vt 0.638643 1.000000
vt 1.000000 0.000000
vt 0.638643 0.000000
vt 0.000000 0.000000
vt 1.000000 1.000000
vt 1.000000 1.000000
vt 1.000000 1.000000
vt 1.000000 0.000000
vt 1.000000 0.000000
vt 0.638643 1.000000
vt 0.638643 1.000000
vt 1.000000 1.000000
vt 1.000000 1.000000
vt 1.000000 1.000000
vt 1.000000 1.000000
vt 1.000000 1.000000
vt 1.000000 1.000000
vt 1.000000 1.000000
vt 1.000000 1.000000
vt 1.000000 1.000000
vt 1.000000 1.000000
vt 1.000000 0.000000
vt 1.000000 1.000000
vt 1.000000 1.000000
vt 1.000000 1.000000
vt 1.000000 1.000000
vt 1.000000 1.000000
vt 1.000000 1.000000
vt 1.000000 1.000000
vt 1.000000 1.000000
vt 1.000000 1.000000
vt 1.000000 1.000000
vt 0.000000 1.000000
vt 1.000000 0.000000
vt 0.000000 0.000000
vt 0.000000 0.000000
vt 1.000000 1.000000
vt 1.000000 0.000000
vt 1.000000 0.000000
vt 0.000000 1.000000
vt 0.000000 0.000000
vt 0.000000 0.000000
vt 1.000000 1.000000
vt 0.000000 1.000000
vt 0.000000 0.000000
vt 1.000000 1.000000
vt 0.000000 1.000000
vt 0.913885 0.000000
vt 1.000000 1.000000
vt 0.913885 1.000000
vt 0.000000 1.000000
vt 0.000000 0.000000
vt 1.000000 0.000000
vt 0.913885 0.000000
vt 1.000000 0.000000
vt 1.000000 0.000000
vt 0.638643 1.000000
vt 0.638643 0.000000
vt 0.000000 0.000000
vt 0.000000 1.000000
vt 1.000000 1.000000
vt 0.638643 1.000000
vt 1.000000 1.000000
vt 1.000000 0.000000
vt 1.000000 1.000000
vt 1.000000 1.000000
vt 0.638643 1.000000
vt 1.000000 1.000000
vt 1.000000 1.000000
vt 1.000000 1.000000
vt 1.000000 1.000000
vt 1.000000 1.000000
vt 1.000000 1.000000
vt 1.000000 1.000000
vt 1.000000 1.000000
vt 1.000000 1.000000
vt 1.000000 1.000000
vt 1.000000 0.000000
vt 1.000000 1.000000
vt 1.000000 0.000000
vt 1.000000 1.000000
vt 1.000000 1.000000
vt 1.000000 1.000000
vt 1.000000 1.000000
vt 1.000000 1.000000
vt 1.000000 1.000000
vt 1.000000 1.000000
vt 1.000000 1.000000
vt 1.000000 1.000000
vt 1.000000 0.000000
vt 0.000000 1.000000
vt 0.000000 0.000000
vt 0.000000 0.000000
vt 1.000000 1.000000
vt 0.000000 1.000000
vt 0.000000 1.000000
vt 1.000000 1.000000
vt 1.000000 1.000000
vt 1.000000 1.000000
vt 0.000000 1.000000
vt 1.000000 0.000000
vt 1.000000 1.000000
vt 1.000000 0.000000
vt 0.000000 1.000000
vt 1.000000 0.000000
vt 1.000000 0.000000
vt 1.000000 0.000000
vt 0.913885 1.000000
vt 1.000000 1.000000
vt 1.000000 0.000000
vt 0.000000 1.000000
vt 1.000000 1.000000
vt 1.000000 1.000000
vn -0.0000 0.0000 -1.0000
vn 0.0001 -0.0000 -1.0000
vn -0.0000 -0.0000 1.0000
vn -0.0001 0.0000 1.0000
vn 0.8533 0.5213 0.0000
vn 1.0000 -0.0000 0.0000
vn 0.6535 -0.7569 -0.0000
vn 0.8858 -0.4640 0.0000
vn -0.5213 0.8533 -0.0000
vn -1.0000 0.0000 0.0000
vn 0.4640 0.8858 0.0000
vn -0.8533 -0.5213 0.0000
vn -0.8858 0.4640 0.0000
vn 0.5213 -0.8533 0.0000
vn -0.4640 -0.8858 -0.0000
vn 0.8374 -0.5467 0.0000
vn 0.0000 -1.0000 -0.0000
vn 0.5467 0.8374 0.0000
vn 0.0000 1.0000 0.0000
vn -0.8374 0.5467 -0.0000
vn -0.5467 -0.8374 -0.0000
vn 0.1909 0.9816 0.0000
vn 0.9816 -0.1909 0.0000
vn -0.9816 0.1909 -0.0000
vn 0.9704 -0.2417 0.0000
vn -0.7569 -0.6535 -0.0000
vn 0.8528 -0.5222 -0.0000
vn 0.6346 0.7729 0.0000
vn -0.6618 -0.7497 -0.0000
vn -0.6535 0.7569 0.0000
usemtl None
s 1
f 1/1/1 3/2/1 4/3/1
f 6/4/1 8/5/1 5/6/1
f 9/7/1 11/8/1 12/9/1
f 13/10/2 15/11/2 16/12/2
f 18/13/2 13/10/2 17/14/2
f 16/12/2 20/15/1 13/10/2
f 22/16/1 24/17/1 21/18/1
f 25/19/1 22/16/1 21/18/1
f 22/16/1 28/20/1 23/21/1
f 29/22/1 31/23/1 32/24/1
f 33/25/1 28/20/1 27/26/1
f 36/27/1 38/28/1 35/29/1
f 39/30/1 31/23/1 30/31/1
f 41/32/1 37/33/1 36/27/1
f 44/34/1 42/35/1 43/36/1
f 23/21/1 46/37/1 24/17/1
f 45/38/1 32/24/1 46/37/1
f 47/39/1 28/20/1 34/40/1
f 35/29/1 48/41/1 47/39/1
f 45/38/1 38/28/1 29/22/1
f 30/31/1 50/42/1 39/30/1
f 49/43/1 43/36/1 50/42/1
f 51/44/1 53/45/1 54/46/1
f 51/44/1 50/42/1 43/36/1
f 55/47/1 54/46/1 53/45/1
f 58/48/1 60/49/1 57/50/1
f 61/51/1 63/52/1 64/53/1
f 66/54/3 68/55/3 65/56/3
f 69/57/3 71/58/3 72/59/3
f 73/60/3 75/61/3 76/62/3
f 77/63/4 79/64/4 80/65/4
f 77/63/4 82/66/4 81/67/4
f 78/68/4 83/69/3 84/70/3
f 86/71/3 88/72/3 85/73/3
f 89/74/3 88/72/3 90/75/3
f 88/72/3 91/76/3 92/77/3
f 93/78/3 95/79/3 96/80/3
f 92/77/3 97/81/3 98/82/3
f 100/83/3 102/84/3 99/85/3
f 95/79/3 104/86/3 96/80/3
f 102/84/3 105/87/3 106/88/3
f 107/89/3 101/90/3 108/91/3
f 87/92/3 109/93/3 110/94/3
f 110/94/3 94/95/3 93/78/3
f 91/76/3 112/96/3 97/81/3
f 111/97/3 99/85/3 112/96/3
f 100/83/3 110/94/3 93/78/3
f 113/98/3 96/80/3 104/86/3
f 107/89/3 114/99/3 113/98/3
f 115/100/3 117/101/3 118/102/3
f 113/98/3 115/100/3 107/89/3
f 116/103/3 120/104/3 117/101/3
f 122/105/3 124/106/3 121/107/3
f 125/108/3 127/109/3 128/110/3
f 57/50/5 124/106/5 58/48/5
f 32/24/6 109/93/6 46/37/6
f 21/18/7 89/74/7 25/19/7
f 2/111/8 65/56/8 68/55/8
f 60/49/9 121/107/9 57/50/9
f 29/22/10 96/80/10 30/31/10
f 4/3/11 65/56/11 1/1/11
f 60/49/12 123/112/12 122/105/12
f 3/2/13 66/54/13 4/3/13
f 59/113/14 124/106/14 123/112/14
f 47/39/10 99/85/10 35/29/10
f 3/2/15 68/55/15 67/114/15
f 62/115/16 125/108/16 128/110/16
f 48/41/6 91/76/6 28/20/6
f 27/26/17 88/72/17 92/77/17
f 6/4/8 69/57/8 72/59/8
f 64/53/18 125/108/18 61/51/18
f 28/20/19 87/92/19 23/21/19
f 8/5/11 69/57/11 5/6/11
f 63/52/20 126/116/20 64/53/20
f 7/117/13 70/118/13 8/5/13
f 63/52/21 128/110/21 127/109/21
f 35/29/10 102/84/10 36/27/10
f 23/21/10 110/94/10 45/38/10
f 6/4/15 71/58/15 7/117/15
f 31/23/6 94/95/6 32/24/6
f 9/7/5 76/62/5 10/119/5
f 38/28/19 93/78/19 29/22/19
f 33/25/10 97/81/10 34/40/10
f 12/9/9 73/60/9 9/7/9
f 45/38/17 111/97/17 48/41/17
f 33/25/17 92/77/17 98/82/17
f 12/9/12 75/61/12 74/120/12
f 50/42/19 104/86/19 39/30/19
f 11/8/14 76/62/14 75/61/14
f 49/43/17 96/80/17 114/99/17
f 18/13/22 81/67/22 82/66/22
f 34/40/10 112/96/10 47/39/10
f 37/33/6 100/83/6 38/28/6
f 15/11/17 78/68/17 16/12/17
f 44/34/17 114/99/17 108/91/17
f 39/30/19 103/121/19 40/122/19
f 14/123/23 82/66/23 80/65/23
f 13/10/24 81/67/24 17/14/24
f 52/124/19 117/101/19 53/45/19
f 40/122/6 95/79/6 31/23/6
f 14/123/25 79/64/25 15/11/25
f 43/36/10 115/100/10 51/44/10
f 41/32/19 105/87/19 42/35/19
f 36/27/10 106/88/10 41/32/10
f 19/125/24 83/69/24 20/15/24
f 51/44/10 118/102/10 52/124/10
f 16/12/17 84/70/17 19/125/17
f 54/46/6 113/98/6 50/42/6
f 42/35/19 107/89/19 43/36/19
f 20/15/19 77/63/19 13/10/19
f 44/34/17 101/90/17 37/33/17
f 25/19/26 90/75/26 26/126/26
f 55/47/27 119/127/27 56/128/27
f 24/17/7 85/73/7 21/18/7
f 53/45/28 120/104/28 55/47/28
f 46/37/6 86/71/6 24/17/6
f 54/46/29 119/127/29 116/103/29
f 26/126/30 88/72/30 22/16/30
f 1/1/1 2/111/1 3/2/1
f 6/4/1 7/117/1 8/5/1
f 9/7/1 10/119/1 11/8/1
f 13/10/2 14/123/2 15/11/2
f 18/13/2 14/123/2 13/10/2
f 16/12/2 19/125/1 20/15/1
f 22/16/1 23/21/1 24/17/1
f 25/19/1 26/126/1 22/16/1
f 22/16/1 27/26/1 28/20/1
f 29/22/1 30/31/1 31/23/1
f 33/25/1 34/40/1 28/20/1
f 36/27/1 37/33/1 38/28/1
f 39/30/1 40/122/1 31/23/1
f 41/32/1 42/35/1 37/33/1
f 44/34/1 37/33/1 42/35/1
f 23/21/1 45/38/1 46/37/1
f 45/38/1 29/22/1 32/24/1
f 47/39/1 48/41/1 28/20/1
f 35/29/1 38/28/1 48/41/1
f 45/38/1 48/41/1 38/28/1
f 30/31/1 49/43/1 50/42/1
f 49/43/1 44/34/1 43/36/1
f 51/44/1 52/124/1 53/45/1
f 51/44/1 54/46/1 50/42/1
f 55/47/1 56/128/1 54/46/1
f 58/48/1 59/113/1 60/49/1
f 61/51/1 62/115/1 63/52/1
f 66/54/3 67/114/3 68/55/3
f 69/57/3 70/118/3 71/58/3
f 73/60/3 74/120/3 75/61/3
f 77/63/4 78/68/4 79/64/4
f 77/63/4 80/65/4 82/66/4
f 78/68/4 77/63/4 83/69/3
f 86/71/3 87/92/3 88/72/3
f 89/74/3 85/73/3 88/72/3
f 88/72/3 87/92/3 91/76/3
f 93/78/3 94/95/3 95/79/3
f 92/77/3 91/76/3 97/81/3
f 100/83/3 101/90/3 102/84/3
f 95/79/3 103/121/3 104/86/3
f 102/84/3 101/90/3 105/87/3
f 107/89/3 105/87/3 101/90/3
f 87/92/3 86/71/3 109/93/3
f 110/94/3 109/93/3 94/95/3
f 91/76/3 111/97/3 112/96/3
f 111/97/3 100/83/3 99/85/3
f 100/83/3 111/97/3 110/94/3
f 113/98/3 114/99/3 96/80/3
f 107/89/3 108/91/3 114/99/3
f 115/100/3 116/103/3 117/101/3
f 113/98/3 116/103/3 115/100/3
f 116/103/3 119/127/3 120/104/3
f 122/105/3 123/112/3 124/106/3
f 125/108/3 126/116/3 127/109/3
f 57/50/5 121/107/5 124/106/5
f 32/24/6 94/95/6 109/93/6
f 21/18/7 85/73/7 89/74/7
f 2/111/8 1/1/8 65/56/8
f 60/49/9 122/105/9 121/107/9
f 29/22/10 93/78/10 96/80/10
f 4/3/11 66/54/11 65/56/11
f 60/49/12 59/113/12 123/112/12
f 3/2/13 67/114/13 66/54/13
f 59/113/14 58/48/14 124/106/14
f 47/39/10 112/96/10 99/85/10
f 3/2/15 2/111/15 68/55/15
f 62/115/16 61/51/16 125/108/16
f 48/41/6 111/97/6 91/76/6
f 27/26/17 22/16/17 88/72/17
f 6/4/8 5/6/8 69/57/8
f 64/53/18 126/116/18 125/108/18
f 28/20/19 91/76/19 87/92/19
f 8/5/11 70/118/11 69/57/11
f 63/52/20 127/109/20 126/116/20
f 7/117/13 71/58/13 70/118/13
f 63/52/21 62/115/21 128/110/21
f 35/29/10 99/85/10 102/84/10
f 23/21/10 87/92/10 110/94/10
f 6/4/15 72/59/15 71/58/15
f 31/23/6 95/79/6 94/95/6
f 9/7/5 73/60/5 76/62/5
f 38/28/19 100/83/19 93/78/19
f 33/25/10 98/82/10 97/81/10
f 12/9/9 74/120/9 73/60/9
f 45/38/17 110/94/17 111/97/17
f 33/25/17 27/26/17 92/77/17
f 12/9/12 11/8/12 75/61/12
f 50/42/19 113/98/19 104/86/19
f 11/8/14 10/119/14 76/62/14
f 49/43/17 30/31/17 96/80/17
f 18/13/22 17/14/22 81/67/22
f 34/40/10 97/81/10 112/96/10
f 37/33/6 101/90/6 100/83/6
f 15/11/17 79/64/17 78/68/17
f 44/34/17 49/43/17 114/99/17
f 39/30/19 104/86/19 103/121/19
f 14/123/23 18/13/23 82/66/23
f 13/10/24 77/63/24 81/67/24
f 52/124/19 118/102/19 117/101/19
f 40/122/6 103/121/6 95/79/6
f 14/123/25 80/65/25 79/64/25
f 43/36/10 107/89/10 115/100/10
f 41/32/19 106/88/19 105/87/19
f 36/27/10 102/84/10 106/88/10
f 19/125/24 84/70/24 83/69/24
f 51/44/10 115/100/10 118/102/10
f 16/12/17 78/68/17 84/70/17
f 54/46/6 116/103/6 113/98/6
f 42/35/19 105/87/19 107/89/19
f 20/15/19 83/69/19 77/63/19
f 44/34/17 108/91/17 101/90/17
f 25/19/26 89/74/26 90/75/26
f 55/47/27 120/104/27 119/127/27
f 24/17/7 86/71/7 85/73/7
f 53/45/28 117/101/28 120/104/28
f 46/37/6 109/93/6 86/71/6
f 54/46/29 56/128/29 119/127/29
f 26/126/30 90/75/30 88/72/30
